<mxfile host="65bd71144e">
    <diagram name="Page-1" id="rad-OM3xAtKhfUTnnuqS">
        <mxGraphModel dx="1577" dy="735" grid="1" gridSize="10" guides="1" tooltips="1" connect="1" arrows="1" fold="1" page="1" pageScale="1" pageWidth="850" pageHeight="1100" math="0" shadow="0">
            <root>
                <mxCell id="0"/>
                <mxCell id="1" parent="0"/>
                <mxCell id="aeKoGPZsEb-PWAGv4kwy-1" value="" style="rounded=0;whiteSpace=wrap;html=1;" parent="1" vertex="1">
                    <mxGeometry y="40" width="1700" height="1040" as="geometry"/>
                </mxCell>
                <mxCell id="HdBy2Fx3M0TaIa8yCIId-1" value="App" style="text;html=1;align=center;verticalAlign=middle;whiteSpace=wrap;rounded=0;" parent="1" vertex="1">
                    <mxGeometry x="820" y="40" width="60" height="30" as="geometry"/>
                </mxCell>
                <mxCell id="HdBy2Fx3M0TaIa8yCIId-2" value="" style="rounded=0;whiteSpace=wrap;html=1;" parent="1" vertex="1">
                    <mxGeometry x="10" y="70" width="1680" height="110" as="geometry"/>
                </mxCell>
                <mxCell id="HdBy2Fx3M0TaIa8yCIId-3" value="Header" style="text;html=1;align=center;verticalAlign=middle;whiteSpace=wrap;rounded=0;" parent="1" vertex="1">
                    <mxGeometry x="820" y="80" width="60" height="30" as="geometry"/>
                </mxCell>
                <mxCell id="HdBy2Fx3M0TaIa8yCIId-5" value="CostumeControl" style="text;html=1;align=center;verticalAlign=middle;whiteSpace=wrap;rounded=0;" parent="1" vertex="1">
                    <mxGeometry x="820" y="190" width="60" height="30" as="geometry"/>
                </mxCell>
                <mxCell id="HdBy2Fx3M0TaIa8yCIId-6" value="" style="rounded=0;whiteSpace=wrap;html=1;" parent="1" vertex="1">
                    <mxGeometry x="240" y="270" width="260" height="280" as="geometry"/>
                </mxCell>
                <mxCell id="HdBy2Fx3M0TaIa8yCIId-7" value="" style="rounded=0;whiteSpace=wrap;html=1;" parent="1" vertex="1">
                    <mxGeometry x="250" y="380" width="240" height="160" as="geometry"/>
                </mxCell>
                <mxCell id="HdBy2Fx3M0TaIa8yCIId-8" value="CostumeList" style="text;html=1;align=center;verticalAlign=middle;whiteSpace=wrap;rounded=0;" parent="1" vertex="1">
                    <mxGeometry x="340" y="280" width="60" height="30" as="geometry"/>
                </mxCell>
                <mxCell id="HdBy2Fx3M0TaIa8yCIId-9" value="Costume" style="text;html=1;align=center;verticalAlign=middle;whiteSpace=wrap;rounded=0;" parent="1" vertex="1">
                    <mxGeometry x="340" y="380" width="60" height="30" as="geometry"/>
                </mxCell>
                <mxCell id="HdBy2Fx3M0TaIa8yCIId-10" value="" style="rounded=0;whiteSpace=wrap;html=1;" parent="1" vertex="1">
                    <mxGeometry x="510" y="670" width="260" height="210" as="geometry"/>
                </mxCell>
                <mxCell id="HdBy2Fx3M0TaIa8yCIId-11" value="CostumeDetail" style="text;html=1;align=center;verticalAlign=middle;whiteSpace=wrap;rounded=0;" parent="1" vertex="1">
                    <mxGeometry x="610" y="710" width="60" height="30" as="geometry"/>
                </mxCell>
                <mxCell id="2" value="" style="rounded=0;whiteSpace=wrap;html=1;" parent="1" vertex="1">
                    <mxGeometry x="781.25" y="230" width="260" height="320" as="geometry"/>
                </mxCell>
                <mxCell id="4" value="" style="rounded=0;whiteSpace=wrap;html=1;" parent="1" vertex="1">
                    <mxGeometry x="1055" y="670" width="260" height="210" as="geometry"/>
                </mxCell>
                <mxCell id="5" value="CostumePartDetail" style="text;html=1;strokeColor=none;fillColor=none;align=center;verticalAlign=middle;whiteSpace=wrap;rounded=0;" parent="1" vertex="1">
                    <mxGeometry x="1155" y="740" width="60" height="30" as="geometry"/>
                </mxCell>
                <mxCell id="8" value="" style="rounded=0;whiteSpace=wrap;html=1;" parent="1" vertex="1">
                    <mxGeometry x="781.25" y="590" width="260" height="290" as="geometry"/>
                </mxCell>
                <mxCell id="9" value="" style="rounded=0;whiteSpace=wrap;html=1;" parent="1" vertex="1">
                    <mxGeometry x="1328.75" y="590" width="260" height="290" as="geometry"/>
                </mxCell>
                <mxCell id="10" value="EditCostumeForm" style="text;html=1;strokeColor=none;fillColor=none;align=center;verticalAlign=middle;whiteSpace=wrap;rounded=0;" parent="1" vertex="1">
                    <mxGeometry x="881.25" y="630" width="60" height="30" as="geometry"/>
                </mxCell>
                <mxCell id="11" value="EditCostumePartForm" style="text;html=1;strokeColor=none;fillColor=none;align=center;verticalAlign=middle;whiteSpace=wrap;rounded=0;" parent="1" vertex="1">
                    <mxGeometry x="1428.75" y="630" width="60" height="30" as="geometry"/>
                </mxCell>
                <mxCell id="12" value="" style="rounded=0;whiteSpace=wrap;html=1;" parent="1" vertex="1">
                    <mxGeometry x="788.75" y="750" width="245" height="120" as="geometry"/>
                </mxCell>
                <mxCell id="13" value="" style="rounded=0;whiteSpace=wrap;html=1;" parent="1" vertex="1">
                    <mxGeometry x="1337.5" y="750" width="242.5" height="120" as="geometry"/>
                </mxCell>
                <mxCell id="14" value="ReusableForm" style="text;html=1;strokeColor=none;fillColor=none;align=center;verticalAlign=middle;whiteSpace=wrap;rounded=0;" parent="1" vertex="1">
                    <mxGeometry x="881.25" y="790" width="60" height="30" as="geometry"/>
                </mxCell>
                <mxCell id="15" value="ReusableForm" style="text;html=1;strokeColor=none;fillColor=none;align=center;verticalAlign=middle;whiteSpace=wrap;rounded=0;" parent="1" vertex="1">
                    <mxGeometry x="1428.75" y="790" width="60" height="30" as="geometry"/>
                </mxCell>
                <mxCell id="16" value="Main list of all costumes in stock. Costume Control gets all information of costumes from this list for the purposes of showing individual costumes." style="text;html=1;strokeColor=none;fillColor=none;align=center;verticalAlign=middle;whiteSpace=wrap;rounded=0;fontSize=13;" parent="1" vertex="1">
                    <mxGeometry x="242.5" y="300" width="255" height="75" as="geometry"/>
                </mxCell>
                <mxCell id="17" value="Objects labeled as Costumes. These hold information on an objects name, brand, price, size, quantity, and extra information. All of this information can be viewed by clicking on the object, pulling up the object in CostumeDetail.&amp;nbsp;" style="text;html=1;strokeColor=none;fillColor=none;align=center;verticalAlign=middle;whiteSpace=wrap;rounded=0;fontSize=13;" parent="1" vertex="1">
                    <mxGeometry x="262.5" y="400" width="215" height="130" as="geometry"/>
                </mxCell>
                <mxCell id="20" value="Page that allows the user to see the info of a costume. Accessed by clicking on a Costume on the main page, you can see a Costume's name, brand, size, description, quantity of stock, and while on this page you can add CostumeParts to the Costume in a dynamic list. Once added to the Costume, these CostumeParts will be listed below with the same available info.&amp;nbsp;" style="text;html=1;strokeColor=none;fillColor=none;align=center;verticalAlign=middle;whiteSpace=wrap;rounded=0;" parent="1" vertex="1">
                    <mxGeometry x="520" y="730" width="240" height="150" as="geometry"/>
                </mxCell>
                <mxCell id="21" value="Form that is made to be reusable with code. Good for updating Costumes or making a brand new Costume" style="text;html=1;strokeColor=none;fillColor=none;align=center;verticalAlign=middle;whiteSpace=wrap;rounded=0;" parent="1" vertex="1">
                    <mxGeometry x="796.25" y="820" width="230" height="50" as="geometry"/>
                </mxCell>
                <mxCell id="22" value="Form that is made to be reusable with code. Good for updating Costumes or making a brand new Costume" style="text;html=1;strokeColor=none;fillColor=none;align=center;verticalAlign=middle;whiteSpace=wrap;rounded=0;" parent="1" vertex="1">
                    <mxGeometry x="1343.75" y="820" width="230" height="50" as="geometry"/>
                </mxCell>
                <mxCell id="23" value="Page that allows the user to see the info of a CostumePart. Accessed by clicking on a CostumePart on the main page, you can see a CostumePart's name, brand, size, description, quantity of stock, ect. CostumeParts can be added to a Costume.&amp;nbsp;&amp;nbsp;" style="text;html=1;strokeColor=none;fillColor=none;align=center;verticalAlign=middle;whiteSpace=wrap;rounded=0;" parent="1" vertex="1">
                    <mxGeometry x="1065" y="760" width="240" height="120" as="geometry"/>
                </mxCell>
                <mxCell id="24" value="Form that is made to be reusable with code. Used to update a Costume if there is wrong information in the Costume or it is being updated." style="text;html=1;strokeColor=none;fillColor=none;align=center;verticalAlign=middle;whiteSpace=wrap;rounded=0;" parent="1" vertex="1">
                    <mxGeometry x="796.25" y="650" width="230" height="90" as="geometry"/>
                </mxCell>
                <mxCell id="25" value="Form that is made to be reusable with code. Used to update a Costume if there is wrong information in the CostumePart or it is being updated." style="text;html=1;strokeColor=none;fillColor=none;align=center;verticalAlign=middle;whiteSpace=wrap;rounded=0;" parent="1" vertex="1">
                    <mxGeometry x="1343.75" y="660" width="230" height="90" as="geometry"/>
                </mxCell>
                <mxCell id="27" value="Placeholder, mainly used for styling at the moment." style="text;html=1;strokeColor=none;fillColor=none;align=center;verticalAlign=middle;whiteSpace=wrap;rounded=0;" parent="1" vertex="1">
                    <mxGeometry x="20" y="110" width="1660" height="60" as="geometry"/>
                </mxCell>
                <mxCell id="29" value="" style="rounded=0;whiteSpace=wrap;html=1;" parent="1" vertex="1">
                    <mxGeometry x="791.25" y="350" width="238.75" height="190" as="geometry"/>
                </mxCell>
                <mxCell id="28" value="CostumePartList" style="text;html=1;align=center;verticalAlign=middle;whiteSpace=wrap;rounded=0;" parent="1" vertex="1">
                    <mxGeometry x="881.25" y="240" width="60" height="30" as="geometry"/>
                </mxCell>
                <mxCell id="30" value="Main list of all costume parts in stock. Costume Control gets all information of costumes from this list for the purposes of showing individual costumes." style="text;html=1;strokeColor=none;fillColor=none;align=center;verticalAlign=middle;whiteSpace=wrap;rounded=0;fontSize=13;" parent="1" vertex="1">
                    <mxGeometry x="786.25" y="260" width="250" height="90" as="geometry"/>
                </mxCell>
                <mxCell id="18" value="Objects labeled as Costume Parts. These hold information on an objects name, brand, price, size, quantity, extra information, and which Costume they are connected to. These objects can be viewed by clicking on a Costume to view CostumeDetail. The Costume Part will be in a list underneath the Costume." style="text;html=1;strokeColor=none;fillColor=none;align=center;verticalAlign=middle;whiteSpace=wrap;rounded=0;" parent="1" vertex="1">
                    <mxGeometry x="801.25" y="430" width="220" height="90" as="geometry"/>
                </mxCell>
                <mxCell id="3" value="CostumePart" style="text;html=1;strokeColor=none;fillColor=none;align=center;verticalAlign=middle;whiteSpace=wrap;rounded=0;" parent="1" vertex="1">
                    <mxGeometry x="881.25" y="380" width="60" height="30" as="geometry"/>
                </mxCell>
                <mxCell id="32" value="" style="rounded=0;whiteSpace=wrap;html=1;" parent="1" vertex="1">
                    <mxGeometry x="510" y="920" width="260" height="140" as="geometry"/>
                </mxCell>
                <mxCell id="33" value="" style="endArrow=classic;startArrow=classic;html=1;exitX=0.5;exitY=0;exitDx=0;exitDy=0;entryX=0.5;entryY=1;entryDx=0;entryDy=0;" parent="1" source="32" target="HdBy2Fx3M0TaIa8yCIId-10" edge="1">
                    <mxGeometry width="50" height="50" relative="1" as="geometry">
                        <mxPoint x="930" y="610" as="sourcePoint"/>
                        <mxPoint x="980" y="560" as="targetPoint"/>
                    </mxGeometry>
                </mxCell>
                <mxCell id="35" value="" style="endArrow=classic;html=1;entryX=0.5;entryY=1;entryDx=0;entryDy=0;" parent="1" target="4" edge="1">
                    <mxGeometry width="50" height="50" relative="1" as="geometry">
                        <mxPoint x="640" y="900" as="sourcePoint"/>
                        <mxPoint x="1030" y="960" as="targetPoint"/>
                        <Array as="points">
                            <mxPoint x="1185" y="900"/>
                        </Array>
                    </mxGeometry>
                </mxCell>
                <mxCell id="36" value="SelectedCostume" style="text;html=1;strokeColor=none;fillColor=none;align=center;verticalAlign=middle;whiteSpace=wrap;rounded=0;" parent="1" vertex="1">
                    <mxGeometry x="610" y="930" width="60" height="30" as="geometry"/>
                </mxCell>
                <mxCell id="37" value="Handler used to add CostumeParts to a CostumeDetail page. The handler is made in such a way to make adding CostumeParts fairly simple with a dynamic dropdown menu. All the user has to do is click on the desired CostumePart in the list in order to add it." style="text;html=1;strokeColor=none;fillColor=none;align=center;verticalAlign=middle;whiteSpace=wrap;rounded=0;" parent="1" vertex="1">
                    <mxGeometry x="520" y="960" width="240" height="100" as="geometry"/>
                </mxCell>
                <mxCell id="39" value="" style="rounded=0;whiteSpace=wrap;html=1;" vertex="1" parent="1">
                    <mxGeometry x="510" y="450" width="260" height="100" as="geometry"/>
                </mxCell>
                <mxCell id="40" value="" style="rounded=0;whiteSpace=wrap;html=1;" vertex="1" parent="1">
                    <mxGeometry x="1055" y="450" width="260" height="100" as="geometry"/>
                </mxCell>
                <mxCell id="41" value="" style="endArrow=classic;startArrow=classic;html=1;exitX=0.95;exitY=0;exitDx=0;exitDy=0;exitPerimeter=0;" edge="1" parent="1" source="4" target="9">
                    <mxGeometry width="50" height="50" relative="1" as="geometry">
                        <mxPoint x="1080" y="560" as="sourcePoint"/>
                        <mxPoint x="1130" y="510" as="targetPoint"/>
                        <Array as="points">
                            <mxPoint x="1300" y="570"/>
                            <mxPoint x="1360" y="570"/>
                            <mxPoint x="1470" y="570"/>
                        </Array>
                    </mxGeometry>
                </mxCell>
                <mxCell id="42" value="NewCostumeForm" style="text;html=1;strokeColor=none;fillColor=none;align=center;verticalAlign=middle;whiteSpace=wrap;rounded=0;" vertex="1" parent="1">
                    <mxGeometry x="520" y="460" width="240" height="30" as="geometry"/>
                </mxCell>
                <mxCell id="43" value="NewCostumePartForm" style="text;html=1;strokeColor=none;fillColor=none;align=center;verticalAlign=middle;whiteSpace=wrap;rounded=0;" vertex="1" parent="1">
                    <mxGeometry x="1065" y="460" width="240" height="30" as="geometry"/>
                </mxCell>
                <mxCell id="44" value="ReusableForm that is used to make Costumes. In this form the user can add a name, brand, price, ect. onto a Costume." style="text;html=1;strokeColor=none;fillColor=none;align=center;verticalAlign=middle;whiteSpace=wrap;rounded=0;" vertex="1" parent="1">
                    <mxGeometry x="520" y="480" width="240" height="60" as="geometry"/>
                </mxCell>
                <mxCell id="45" value="ReusableForm that is used to make CostumeParts. In this form the user can add a name, brand, price, ect. onto a CostumePart." style="text;html=1;strokeColor=none;fillColor=none;align=center;verticalAlign=middle;whiteSpace=wrap;rounded=0;" vertex="1" parent="1">
                    <mxGeometry x="1065" y="490" width="240" height="60" as="geometry"/>
                </mxCell>
                <mxCell id="46" value="" style="endArrow=classic;startArrow=classic;html=1;entryX=0.5;entryY=0;entryDx=0;entryDy=0;exitX=0.965;exitY=0.007;exitDx=0;exitDy=0;exitPerimeter=0;" edge="1" parent="1" source="HdBy2Fx3M0TaIa8yCIId-10" target="8">
                    <mxGeometry width="50" height="50" relative="1" as="geometry">
                        <mxPoint x="890" y="430" as="sourcePoint"/>
                        <mxPoint x="940" y="380" as="targetPoint"/>
                        <Array as="points">
                            <mxPoint x="760" y="570"/>
                            <mxPoint x="911" y="570"/>
                        </Array>
                    </mxGeometry>
                </mxCell>
                <mxCell id="53" value="" style="endArrow=classic;startArrow=classic;html=1;entryX=1.011;entryY=0.801;entryDx=0;entryDy=0;exitX=0.5;exitY=0;exitDx=0;exitDy=0;entryPerimeter=0;" edge="1" parent="1" source="39" target="16">
                    <mxGeometry width="50" height="50" relative="1" as="geometry">
                        <mxPoint x="590" y="460" as="sourcePoint"/>
                        <mxPoint x="640" y="410" as="targetPoint"/>
                        <Array as="points">
                            <mxPoint x="640" y="360"/>
                        </Array>
                    </mxGeometry>
                </mxCell>
                <mxCell id="54" value="" style="endArrow=classic;startArrow=classic;html=1;entryX=0.5;entryY=1;entryDx=0;entryDy=0;exitX=0.5;exitY=0;exitDx=0;exitDy=0;" edge="1" parent="1" source="HdBy2Fx3M0TaIa8yCIId-10" target="HdBy2Fx3M0TaIa8yCIId-6">
                    <mxGeometry width="50" height="50" relative="1" as="geometry">
                        <mxPoint x="590" y="560" as="sourcePoint"/>
                        <mxPoint x="640" y="510" as="targetPoint"/>
                        <Array as="points">
                            <mxPoint x="640" y="640"/>
                            <mxPoint x="370" y="640"/>
                        </Array>
                    </mxGeometry>
                </mxCell>
                <mxCell id="55" value="" style="endArrow=classic;startArrow=classic;html=1;entryX=1;entryY=0.439;entryDx=0;entryDy=0;exitX=0.5;exitY=0;exitDx=0;exitDy=0;entryPerimeter=0;" edge="1" parent="1" source="40" target="2">
                    <mxGeometry width="50" height="50" relative="1" as="geometry">
                        <mxPoint x="650" y="460" as="sourcePoint"/>
                        <mxPoint x="510.30499999999984" y="370.07499999999993" as="targetPoint"/>
                        <Array as="points">
                            <mxPoint x="1185" y="370"/>
                        </Array>
                    </mxGeometry>
                </mxCell>
                <mxCell id="56" value="" style="endArrow=classic;startArrow=classic;html=1;exitX=0.5;exitY=1;exitDx=0;exitDy=0;entryX=0.5;entryY=0;entryDx=0;entryDy=0;" edge="1" parent="1" source="2" target="4">
                    <mxGeometry width="50" height="50" relative="1" as="geometry">
                        <mxPoint x="960" y="550" as="sourcePoint"/>
                        <mxPoint x="1010" y="500" as="targetPoint"/>
                        <Array as="points">
                            <mxPoint x="910" y="570"/>
                            <mxPoint x="1185" y="570"/>
                        </Array>
                    </mxGeometry>
                </mxCell>
            </root>
        </mxGraphModel>
    </diagram>
</mxfile>